# xmcd CD database file
#
# Track frame offsets:
#	183
#	14600
#	34620
#	48235
#	63695
#	75553
#	89678
#	103778
#	116105
#	128598
#	145338
#	161210
#	171480
#	180768
#
# Disc length: 2579 seconds
#
# Revision: 2
# Processed by: cddbd v1.5.2PL0 Copyright (c) Steve Scherf et al.
# Submitted via: CDex 1.51
#
DISCID=c00a110e
DTITLE=Orphéon Célesta - Anoulanouba !
DYEAR=1989
DGENRE=Jazz
TTITLE0=Ce maudit O.V.N.I.  (Somebody loves me)
TTITLE1=Summertime
TTITLE2=Nice work if you can get it
TTITLE3=Periphonia
TTITLE4=Alunissons
TTITLE5=Grandpa's spells
TTITLE6=Swanee
TTITLE7=Armando's rumba
TTITLE8=Quasimodo
TTITLE9=Jungle crawl
TTITLE10=Jazzy-Romeo  (I'm crasy about my baby)
TTITLE11=Et la fête continue
TTITLE12=When the saints go marchin'in
TTITLE13=Pif-Paf !
EXTD=YEAR: 1989
EXTT0=
EXTT1=
EXTT2=
EXTT3=
EXTT4=
EXTT5=
EXTT6=
EXTT7=
EXTT8=
EXTT9=
EXTT10=
EXTT11=
EXTT12=
EXTT13=
PLAYORDER=
